<svg width="16" height="16" viewBox="0 0 16 16" fill="none" xmlns="http://www.w3.org/2000/svg">
<path d="M13.265 6.265L8.26505 11.265C8.19473 11.3352 8.09942 11.3747 8.00005 11.3747C7.90067 11.3747 7.80536 11.3352 7.73505 11.265L2.73505 6.265C2.66881 6.19391 2.63274 6.09989 2.63446 6.00274C2.63617 5.90559 2.67553 5.8129 2.74423 5.74419C2.81294 5.67548 2.90563 5.63613 3.00278 5.63441C3.09993 5.6327 3.19396 5.66876 3.26505 5.735L8.00005 10.4694L12.735 5.735C12.8061 5.66876 12.9002 5.6327 12.9973 5.63441C13.0945 5.63613 13.1872 5.67548 13.2559 5.74419C13.3246 5.8129 13.3639 5.90559 13.3656 6.00274C13.3673 6.09989 13.3313 6.19391 13.265 6.265Z" fill="#1B2438"/>
</svg>
